<svg width="350" height="350" viewBox="0 0 350 350" fill="none" xmlns="http://www.w3.org/2000/svg">
<path opacity="0.7" d="M50.3207 103.904C56.5755 80.5644 80.5666 56.5739 103.906 50.3193L249.416 11.325C272.756 5.07033 286.606 18.92 280.351 42.2592L241.356 187.766C235.101 211.105 211.11 235.095 187.771 241.35L42.2604 280.344C18.9208 286.599 5.0707 272.749 11.3255 249.41L50.3207 103.904Z" fill="#0646AA"/>
<path opacity="0.7" d="M108.636 162.234C114.891 138.895 138.882 114.904 162.222 108.65L307.732 69.6556C331.071 63.4009 344.921 77.2506 338.667 100.59L299.671 246.096C293.417 269.436 269.426 293.426 246.086 299.681L100.576 338.675C77.2362 344.93 63.3861 331.08 69.6409 307.741L108.636 162.234Z" fill="#0646AA"/>
</svg>
