<svg width="400" height="485" viewBox="0 0 400 485" fill="none" xmlns="http://www.w3.org/2000/svg">
<path opacity="0.7" d="M75.3216 103.904C81.5766 80.5644 105.568 56.5739 128.908 50.3192L274.422 11.3249C297.762 5.07028 311.613 18.92 305.358 42.2592L266.362 187.766C260.107 211.105 236.115 235.096 212.775 241.35L67.2612 280.345C43.921 286.599 30.0706 272.749 36.3255 249.41L75.3216 103.904Z" fill="#F8F9FA"/>
<path opacity="0.7" d="M133.638 162.234C139.893 138.895 163.885 114.904 187.225 108.65L332.739 69.6555C356.079 63.4009 369.929 77.2506 363.674 100.59L324.678 246.097C318.423 269.436 294.432 293.426 271.092 299.681L125.578 338.675C102.238 344.93 88.3873 331.08 94.6423 307.741L133.638 162.234Z" fill="#F8F9FA"/>
<path d="M83.1331 428.256C83.1331 430.24 83.0051 432.032 82.7491 433.632H42.3331C42.6531 437.856 44.2211 441.248 47.0371 443.808C49.8531 446.368 53.3091 447.648 57.4051 447.648C63.2931 447.648 67.4531 445.184 69.8851 440.256H81.6931C80.0931 445.12 77.1811 449.12 72.9571 452.256C68.7971 455.328 63.6131 456.864 57.4051 456.864C52.3491 456.864 47.8051 455.744 43.7731 453.504C39.8051 451.2 36.6691 448 34.3651 443.904C32.1251 439.744 31.0051 434.944 31.0051 429.504C31.0051 424.064 32.0931 419.296 34.2691 415.2C36.5091 411.04 39.6131 407.84 43.5811 405.6C47.6131 403.36 52.2211 402.24 57.4051 402.24C62.3971 402.24 66.8451 403.328 70.7491 405.504C74.6531 407.68 77.6931 410.752 79.8691 414.72C82.0451 418.624 83.1331 423.136 83.1331 428.256ZM71.7091 424.8C71.6451 420.768 70.2051 417.536 67.3891 415.104C64.5731 412.672 61.0851 411.456 56.9251 411.456C53.1491 411.456 49.9171 412.672 47.2291 415.104C44.5411 417.472 42.9411 420.704 42.4291 424.8H71.7091ZM113.103 456.864C108.943 456.864 105.199 456.128 101.871 454.656C98.6071 453.12 96.0151 451.072 94.0951 448.512C92.1751 445.888 91.1511 442.976 91.0231 439.776H102.351C102.543 442.016 103.599 443.904 105.519 445.44C107.503 446.912 109.967 447.648 112.911 447.648C115.983 447.648 118.351 447.072 120.015 445.92C121.743 444.704 122.607 443.168 122.607 441.312C122.607 439.328 121.647 437.856 119.727 436.896C117.871 435.936 114.895 434.88 110.799 433.728C106.831 432.64 103.599 431.584 101.103 430.56C98.6071 429.536 96.4311 427.968 94.5751 425.856C92.7831 423.744 91.8871 420.96 91.8871 417.504C91.8871 414.688 92.7191 412.128 94.3831 409.824C96.0471 407.456 98.4151 405.6 101.487 404.256C104.623 402.912 108.207 402.24 112.239 402.24C118.255 402.24 123.087 403.776 126.735 406.848C130.447 409.856 132.431 413.984 132.687 419.232H121.743C121.551 416.864 120.591 414.976 118.863 413.568C117.135 412.16 114.799 411.456 111.855 411.456C108.975 411.456 106.767 412 105.231 413.088C103.695 414.176 102.927 415.616 102.927 417.408C102.927 418.816 103.439 420 104.463 420.96C105.487 421.92 106.735 422.688 108.207 423.264C109.679 423.776 111.855 424.448 114.735 425.28C118.575 426.304 121.711 427.36 124.143 428.448C126.639 429.472 128.783 431.008 130.575 433.056C132.367 435.104 133.295 437.824 133.359 441.216C133.359 444.224 132.527 446.912 130.863 449.28C129.199 451.648 126.831 453.504 123.759 454.848C120.751 456.192 117.199 456.864 113.103 456.864ZM157.952 412.032V441.312C157.952 443.296 158.4 444.736 159.296 445.632C160.256 446.464 161.856 446.88 164.096 446.88H170.816V456H162.176C157.248 456 153.472 454.848 150.848 452.544C148.224 450.24 146.912 446.496 146.912 441.312V412.032H140.672V403.104H146.912V389.952H157.952V403.104H170.816V412.032H157.952ZM191.847 410.784C193.447 408.096 195.559 406.016 198.183 404.544C200.871 403.008 204.039 402.24 207.687 402.24V413.568H204.903C200.615 413.568 197.351 414.656 195.111 416.832C192.935 419.008 191.847 422.784 191.847 428.16V456H180.903V403.104H191.847V410.784ZM214.099 429.312C214.099 424 215.187 419.296 217.363 415.2C219.603 411.104 222.611 407.936 226.387 405.696C230.227 403.392 234.451 402.24 239.059 402.24C243.219 402.24 246.835 403.072 249.907 404.736C253.043 406.336 255.539 408.352 257.395 410.784V403.104H268.435V456H257.395V448.128C255.539 450.624 253.011 452.704 249.811 454.368C246.611 456.032 242.963 456.864 238.867 456.864C234.323 456.864 230.163 455.712 226.387 453.408C222.611 451.04 219.603 447.776 217.363 443.616C215.187 439.392 214.099 434.624 214.099 429.312ZM257.395 429.504C257.395 425.856 256.627 422.688 255.091 420C253.619 417.312 251.667 415.264 249.235 413.856C246.803 412.448 244.179 411.744 241.363 411.744C238.547 411.744 235.923 412.448 233.491 413.856C231.059 415.2 229.075 417.216 227.539 419.904C226.067 422.528 225.331 425.664 225.331 429.312C225.331 432.96 226.067 436.16 227.539 438.912C229.075 441.664 231.059 443.776 233.491 445.248C235.987 446.656 238.611 447.36 241.363 447.36C244.179 447.36 246.803 446.656 249.235 445.248C251.667 443.84 253.619 441.792 255.091 439.104C256.627 436.352 257.395 433.152 257.395 429.504ZM295.577 412.032V441.312C295.577 443.296 296.025 444.736 296.921 445.632C297.881 446.464 299.481 446.88 301.721 446.88H308.441V456H299.801C294.873 456 291.097 454.848 288.473 452.544C285.849 450.24 284.537 446.496 284.537 441.312V412.032H278.297V403.104H284.537V389.952H295.577V403.104H308.441V412.032H295.577ZM341.472 456.864C336.48 456.864 331.968 455.744 327.936 453.504C323.904 451.2 320.736 448 318.432 443.904C316.128 439.744 314.976 434.944 314.976 429.504C314.976 424.128 316.16 419.36 318.528 415.2C320.896 411.04 324.128 407.84 328.224 405.6C332.32 403.36 336.896 402.24 341.952 402.24C347.008 402.24 351.584 403.36 355.68 405.6C359.776 407.84 363.008 411.04 365.376 415.2C367.744 419.36 368.928 424.128 368.928 429.504C368.928 434.88 367.712 439.648 365.28 443.808C362.848 447.968 359.52 451.2 355.296 453.504C351.136 455.744 346.528 456.864 341.472 456.864ZM341.472 447.36C344.288 447.36 346.912 446.688 349.344 445.344C351.84 444 353.856 441.984 355.392 439.296C356.928 436.608 357.696 433.344 357.696 429.504C357.696 425.664 356.96 422.432 355.488 419.808C354.016 417.12 352.064 415.104 349.632 413.76C347.2 412.416 344.576 411.744 341.76 411.744C338.944 411.744 336.32 412.416 333.888 413.76C331.52 415.104 329.632 417.12 328.224 419.808C326.816 422.432 326.112 425.664 326.112 429.504C326.112 435.2 327.552 439.616 330.432 442.752C333.376 445.824 337.056 447.36 341.472 447.36Z" fill="#F8F9FA"/>
</svg>
